<?xml version="1.0" encoding="UTF-8" standalone="no"?>
<svg
   xmlns:dc="http://purl.org/dc/elements/1.1/"
   xmlns:cc="http://creativecommons.org/ns#"
   xmlns:rdf="http://www.w3.org/1999/02/22-rdf-syntax-ns#"
   xmlns:svg="http://www.w3.org/2000/svg"
   xmlns="http://www.w3.org/2000/svg"
   xmlns:sodipodi="http://sodipodi.sourceforge.net/DTD/sodipodi-0.dtd"
   xmlns:inkscape="http://www.inkscape.org/namespaces/inkscape"
   id="f4673761-b724-4a95-a095-d2125482816e"
   data-name="Layer 1"
   width="970"
   height="796"
   viewBox="0 0 970 796"
   version="1.1"
   sodipodi:docname="logo.svg"
   inkscape:version="1.0.1 (3bc2e813f5, 2020-09-07)">
  <metadata
     id="metadata1608">
    <rdf:RDF>
      <cc:Work
         rdf:about="">
        <dc:format>image/svg+xml</dc:format>
        <dc:type
           rdf:resource="http://purl.org/dc/dcmitype/StillImage" />
      </cc:Work>
    </rdf:RDF>
  </metadata>
  <defs
     id="defs1606" />
  <sodipodi:namedview
     pagecolor="#ffffff"
     bordercolor="#666666"
     borderopacity="1"
     objecttolerance="10"
     gridtolerance="10"
     guidetolerance="10"
     inkscape:pageopacity="0"
     inkscape:pageshadow="2"
     inkscape:window-width="1920"
     inkscape:window-height="1149"
     id="namedview1604"
     showgrid="false"
     inkscape:zoom="1.2035176"
     inkscape:cx="478.75489"
     inkscape:cy="385.96261"
     inkscape:window-x="1080"
     inkscape:window-y="277"
     inkscape:window-maximized="1"
     inkscape:current-layer="f4673761-b724-4a95-a095-d2125482816e"
     inkscape:document-rotation="0" />
  <title
     id="title1453">hologram</title>
  <circle
     cx="915"
     cy="278"
     r="53"
     fill="#cccccc"
     opacity="0.3"
     id="circle1455" />
  <circle
     cx="915"
     cy="278"
     r="30"
     fill="#73230d"
     id="circle1457" />
  <circle
     cx="882"
     cy="53"
     r="53"
     fill="#ccc"
     opacity="0.3"
     id="circle1459" />
  <circle
     cx="882"
     cy="53"
     r="30"
     fill="#73230d"
     id="circle1461" />
  <circle
     cx="53"
     cy="247"
     r="53"
     fill="#cccccc"
     opacity="0.3"
     id="circle1463" />
  <circle
     cx="53"
     cy="247"
     r="30"
     fill="#73230d"
     id="circle1465" />
  <circle
     cx="100"
     cy="665"
     r="53"
     fill="#ccc"
     opacity="0.3"
     id="circle1467" />
  <circle
     cx="100"
     cy="665"
     r="30"
     fill="#73230d"
     id="circle1469" />
  <circle
     cx="172"
     cy="100"
     r="53"
     fill="#ccc"
     opacity="0.3"
     id="circle1471" />
  <circle
     cx="172"
     cy="100"
     r="30"
     fill="#73230d"
     id="circle1473" />
  <path
     d="M983,483c0,178.34-127.90991,326.81-297,358.67-.65991.13-1.33008.25-2,.37q-15.765,2.895-32,4.39c-.66992.07-1.33008.13-2,.18q-15.81006,1.38-32,1.39c-.66992,0-1.33008,0-2-.01q-16.17-.075-32-1.56c-.66992-.05-1.33008-.12-2-.19q-16.21509-1.575-32-4.57c-.66992-.12-1.34009-.25-2-.38C379.8999,808.64,253,660.64,253,483c0-201.58,163.41992-365,365-365S983,281.42,983,483Z"
     transform="translate(-115 -52)"
     fill="#ff8a4c"
     id="path1475" />
  <rect
     x="570"
     y="274.5"
     width="3"
     height="296.5"
     fill="#73230d"
     id="rect1477" />
  <rect
     x="570"
     y="147.40234"
     width="3"
     height="87.47168"
     fill="#73230d"
     id="rect1479" />
  <rect
     x="433"
     y="138.2749"
     width="3"
     height="456.82114"
     fill="#73230d"
     id="rect1481"
     style="stroke-width:1.02746" />
  <rect
     x="467"
     y="244"
     width="3"
     height="296.6377"
     fill="#73230d"
     id="rect1485" />
  <rect
     x="501"
     y="91.902588"
     width="3"
     height="240.64243"
     fill="#73230d"
     id="rect1489"
     style="stroke-width:0.934859" />
  <rect
     x="535"
     y="289.85455"
     width="3"
     height="192.14545"
     fill="#73230d"
     id="rect1493"
     style="stroke-width:0.709224" />
  <rect
     x="535"
     y="523"
     width="3"
     height="176.68164"
     fill="#73230d"
     id="rect1495"
     style="stroke-width:0.908267" />
  <rect
     x="399"
     y="286.27539"
     width="3"
     height="284.72461"
     fill="#73230d"
     id="rect1505" />
  <rect
     x="365"
     y="147.46887"
     width="3"
     height="423.53113"
     fill="#73230d"
     id="rect1507"
     style="stroke-width:1.06845" />
  <rect
     x="331"
     y="390.96826"
     width="3"
     height="180.03174"
     fill="#73230d"
     id="rect1511" />
  <rect
     x="297"
     y="501"
     width="2"
     height="70"
     fill="#73230d"
     id="rect1515" />
  <rect
     x="263"
     y="464.47437"
     width="3"
     height="106.52562"
     fill="#73230d"
     id="rect1519"
     style="stroke-width:0.79824" />
  <rect
     x="229"
     y="452.40485"
     width="3"
     height="118.59514"
     fill="#73230d"
     id="rect1521"
     style="stroke-width:0.671515" />
  <rect
     x="637"
     y="299.12598"
     width="3"
     height="271.87402"
     fill="#73230d"
     id="rect1531" />
  <rect
     x="671"
     y="362.82608"
     width="3"
     height="66.672592"
     fill="#73230d"
     id="rect1535"
     style="stroke-width:0.619264" />
  <rect
     x="671"
     y="465.14722"
     width="3"
     height="105.85278"
     fill="#73230d"
     id="rect1537"
     style="stroke-width:1.86717" />
  <rect
     x="705"
     y="481.58295"
     width="3"
     height="89.417046"
     fill="#73230d"
     id="rect1539"
     style="stroke-width:0.537936" />
  <rect
     x="739"
     y="468.69644"
     width="3"
     height="102.30357"
     fill="#73230d"
     id="rect1543"
     style="stroke-width:0.846962" />
  <rect
     x="773"
     y="452.1507"
     width="3"
     height="118.84931"
     fill="#73230d"
     id="rect1545"
     style="stroke-width:0.672234" />
  <path
     d="M549,676a10,10,0,1,1,10-10A10.01177,10.01177,0,0,1,549,676Zm0-18a8,8,0,1,0,8,8A8.00917,8.00917,0,0,0,549,658Z"
     transform="translate(-115 -52)"
     fill="#73230d"
     id="path1547" />
  <path
     d="M583,624a10,10,0,1,1,10-10A10.01177,10.01177,0,0,1,583,624Zm0-18a8,8,0,1,0,8,8A8.00917,8.00917,0,0,0,583,606Z"
     transform="translate(-115 -52)"
     fill="#73230d"
     id="path1549" />
  <path
     d="m 571,608 a 10,10 0 1 1 10,-10 10.01177,10.01177 0 0 1 -10,10 z m 0,-18 a 8,8 0 1 0 8,8 8.00917,8.00917 0 0 0 -8,-8 z"
     fill="#73230d"
     id="path1551" />
  <path
     d="M651,563a10,10,0,1,1,10-10A10.01177,10.01177,0,0,1,651,563Zm0-18a8,8,0,1,0,8,8A8.00917,8.00917,0,0,0,651,545Z"
     transform="translate(-115 -52)"
     fill="#73230d"
     id="path1555" />
  <path
     d="m 502,366 a 10,10 0 1 1 10,-10 10.01146,10.01146 0 0 1 -10,10 z"
     fill="#73230d"
     id="path1557" />
  <path
     d="M685,315a10,10,0,1,1,10-10A10.01146,10.01146,0,0,1,685,315Zm0-18a8,8,0,1,0,8,8A8.00917,8.00917,0,0,0,685,297Z"
     transform="translate(-115 -52)"
     fill="#73230d"
     id="path1559" />
  <path
     d="M447,433a10,10,0,1,1,10-10A10.01146,10.01146,0,0,1,447,433Zm0-18a8,8,0,1,0,8,8A8.00917,8.00917,0,0,0,447,415Z"
     transform="translate(-115 -52)"
     fill="#73230d"
     id="path1561" />
  <path
     d="M413,544a10,10,0,1,1,10-10A10.01146,10.01146,0,0,1,413,544Z"
     transform="translate(-115 -52)"
     fill="#73230d"
     id="path1565" />
  <path
     d="m 571,142 a 10,10 0 1 1 10,-10 10.01146,10.01146 0 0 1 -10,10 z m 0,-18 a 8,8 0 1 0 8,8 8.00917,8.00917 0 0 0 -8,-8 z"
     fill="#73230d"
     id="path1567" />
  <path
     d="M515,324a10,10,0,1,1,10-10A10.01146,10.01146,0,0,1,515,324Zm0-18a8,8,0,1,0,8,8A8.00917,8.00917,0,0,0,515,306Z"
     transform="translate(-115 -52)"
     fill="#73230d"
     id="path1569" />
  <path
     d="M583,283a10,10,0,1,1,10-10A10.01146,10.01146,0,0,1,583,283Z"
     transform="translate(-115 -52)"
     fill="#73230d"
     id="path1585" />
  <path
     d="M753,340a10,10,0,1,1,10-10A10.01146,10.01146,0,0,1,753,340Z"
     transform="translate(-115 -52)"
     fill="#73230d"
     id="path1591" />
  <polygon
     points="638.923 278.386 637.077 277.614 731.334 52 882 52 882 54 732.666 54 638.923 278.386"
     fill="#2f2e41"
     id="polygon1595" />
  <polygon
     points="54,254 54,361 503,361 503,363 52,363 52,254 "
     fill="#2f2e41"
     id="polygon1597"
     transform="translate(0,-6)" />
  <polygon
     points="468 222 169 222 169 100 171 100 171 220 468 220 468 222"
     fill="#2f2e41"
     id="polygon1599" />
  <polygon
     points="299 666 100 666 100 664 297 664 297 481 299 481 299 666"
     fill="#2f2e41"
     id="polygon1601" />
  <rect
     x="602.16492"
     y="229.07869"
     width="3"
     height="342.50369"
     fill="#73230d"
     id="rect1477-3"
     style="stroke-width:1.07478" />
  <rect
     x="330.86639"
     y="286.71753"
     width="3"
     height="63.423611"
     fill="#73230d"
     id="rect1511-3"
     style="stroke-width:0.593541" />
  <path
     d="m 671.85793,458.19207 a 10,10 0 1 1 10,-10 10.01146,10.01146 0 0 1 -10,10 z"
     fill="#73230d"
     id="path1589" />
  <polygon
     points="638.923,278.386 637.077,277.614 731.334,52 882,52 882,54 732.666,54 "
     fill="#2f2e41"
     id="polygon1595-6"
     transform="matrix(1,0,0,0.74462108,35.474198,241.63605)" />
  <rect
     x="569.59814"
     y="616.49719"
     width="3"
     height="82.369759"
     fill="#73230d"
     id="rect1495-7"
     style="stroke-width:0.620157" />
  <rect
     x="501.75262"
     y="376.88754"
     width="3"
     height="322.25076"
     fill="#73230d"
     id="rect1495-5"
     style="stroke-width:1.22664" />
  <rect
     x="466.00311"
     y="581.80463"
     width="3"
     height="116.43657"
     fill="#73230d"
     id="rect1495-7-3"
     style="stroke-width:0.737331" />
  <rect
     x="432.00311"
     y="634.14288"
     width="3"
     height="63.259113"
     fill="#73230d"
     id="rect1495-7-3-5"
     style="stroke-width:0.543475" />
</svg>
